# xmcd
#
# Track frame offsets:
#	150
#	10630
#	24062
#	35861
#	46927
#	54942
#	76356
#	85707
#	98169
#	109624
#	120420
#	134080
#	144563
#	154571
#	165164
#	175878
#	189101
#	198118
#	211279
#	223495
#	233333
#	243369
#	254885
#	265068
#	277503
#
# Disc length: 3872 seconds
#
# Revision: 0
# Processed by: cddbd v1.5.2PL0 Copyright (c) Steve Scherf et al.
# Submitted via: dBpowerAMP V4.0
#
DISCID=3d0f1e19
DTITLE=Various Artist - The Broken Circle Repaired CD3
DYEAR=2013
DGENRE=Country
TTITLE0=Dolly Parton - It's Sure Gonna Hurt (1962)
TTITLE1=The Stanley Brothers - I'm A Man Of Contant Sorrow (1959)
TTITLE2=Tennessee Ernie Ford - Sixteen Tons (1955)
TTITLE3=Flatt and Scruggs - Old Salty Dog Blues (1950)
TTITLE4=Johnny Cash - Five Feet High And Rising (1959)
TTITLE5=Sonny Terry and Brownie McGhee - Cripple Creek (1940)
TTITLE6=Ricky Nelson - Half Breed (1959)
TTITLE7=The Blue Sky Boys - Garden In The Sky (1947)
TTITLE8=Ray Price - Crazy Arms (1956)
TTITLE9=Carl Story and His Rambling Montaineers - He Will Set Your Field On Fire (1951)
TTITLE10=Patsy Cline - She's Got You (1961)
TTITLE11=The Lonesome Pine Fiddlers - Twenty One Years (1952)
TTITLE12=Glen Campbell - Valley Of Death (1961)
TTITLE13=The Bailes Brothers - Happy Valley Special (1950)
TTITLE14=Johnny Tillotson - Send Me The Pillow That You Dream On (1962)
TTITLE15=Mac Wiseman - Tis Sweet To Be Remembered (1951)
TTITLE16=Johnny Cash - Delia's Gone (1962)
TTITLE17=The Delmore Brothers - Rounder's Blues (1946)
TTITLE18=Willie Nelson and Shirley Collie - Willingfy (1961)
TTITLE19=Bill Monroe and His Blue Grass Boys - Y'All Come (1954)
TTITLE20=Kitty Wells - I Can't Stop Loving You (1958)
TTITLE21=Flatt and Scruggs - Your Love Is Like A Flower (1957)
TTITLE22=Ned Miller - From A Jack To A King (1962)
TTITLE23=Carson Robinson and His Pioneers - Goin' To The Bam Dance Tonight (1932)
TTITLE24=Buck Owens - Under Your Spell Again (1959)
EXTD=
EXTT0=
EXTT1=
EXTT2=
EXTT3=
EXTT4=
EXTT5=
EXTT6=
EXTT7=
EXTT8=
EXTT9=
EXTT10=
EXTT11=
EXTT12=
EXTT13=
EXTT14=
EXTT15=
EXTT16=
EXTT17=
EXTT18=
EXTT19=
EXTT20=
EXTT21=
EXTT22=
EXTT23=
EXTT24=
PLAYORDER=
